# xmcd
#
# Track frame offsets:
# 150
# 20207
# 39475
# 60572
# 80370
# 105460
# 126260
# 145530
# 164457
# 185517
#
# Disc length: 2729 seconds
# Revision: 4
# Processed by: cddbd v1.5.1PL0 Copyright (c) Steve Scherf et al.
# Submitted via: MusicBin 0.4
#
DISCID=810aa70a
DTITLE=Various Artist - Blues Joint
DYEAR=1998
DGENRE=Blues
TTITLE0=Jimmy King and The King James Version Band - Life Is Hard
TTITLE1=Rod Piazza and The Mighty Flyers - Can't Get That Stuff No M
TTITLE1=ore
TTITLE2=Rusty Zinn - Treat You Like A Queen
TTITLE3=Pat Boyack and The Prowlers - I'll Be The Joker
TTITLE4=Andrew "Junior Boy" Jones - Blues Joint
TTITLE5=Smokey Wilson - You Don't Drink What I Drink
TTITLE6=James Harman - Lock Doctor
TTITLE7=James "Thunderbird" Davis - Check-Out Time
TTITLE8=Bobby King and Terry Evans - Live And Let Live
TTITLE9=Little Buster and The Soul Brothers - Engines And Wings
EXTD=
EXTT0=
EXTT1=
EXTT2=
EXTT3=
EXTT4=
EXTT5=
EXTT6=
EXTT7=
EXTT8=
EXTT9=
PLAYORDER=
